<?xml version="1.0" encoding="UTF-8" standalone="no"?>
<!DOCTYPE svg PUBLIC "-//W3C//DTD SVG 1.1//EN"
 "http://www.w3.org/Graphics/SVG/1.1/DTD/svg11.dtd">
<!-- Generated by graphviz version 2.40.1 (20161225.0304)
 -->
<!-- Title: dependencies Pages: 1 -->
<svg width="504pt" height="284pt"
 viewBox="0.00 0.00 504.00 284.00" xmlns="http://www.w3.org/2000/svg" xmlns:xlink="http://www.w3.org/1999/xlink">
<g id="graph0" class="graph" transform="scale(1 1) rotate(0) translate(4 280)">
<title>dependencies</title>
<polygon fill="#ffffff" stroke="transparent" points="-4,4 -4,-280 500,-280 500,4 -4,4"/>
<text text-anchor="start" x="227.0091" y="-42.4" font-family="sans-serif" font-weight="bold" font-size="14.00" fill="#000000">Legend</text>
<polygon fill="#ffffb3" stroke="transparent" points="14,-10 14,-30 34,-30 34,-10 14,-10"/>
<text text-anchor="start" x="37.629" y="-15.4" font-family="sans-serif" font-size="14.00" fill="#000000"> &#160;Declarations</text>
<polygon fill="#8dd3c7" stroke="transparent" points="127,-10 127,-30 147,-30 147,-10 127,-10"/>
<text text-anchor="start" x="150.7251" y="-15.4" font-family="sans-serif" font-size="14.00" fill="#000000"> &#160;Module</text>
<polygon fill="#80b1d3" stroke="transparent" points="213,-10 213,-30 233,-30 233,-10 213,-10"/>
<text text-anchor="start" x="236.7812" y="-15.4" font-family="sans-serif" font-size="14.00" fill="#000000"> &#160;Bootstrap</text>
<polygon fill="#fdb462" stroke="transparent" points="310,-10 310,-30 330,-30 330,-10 310,-10"/>
<text text-anchor="start" x="333.6732" y="-15.4" font-family="sans-serif" font-size="14.00" fill="#000000"> &#160;Providers</text>
<polygon fill="#fb8072" stroke="transparent" points="406,-10 406,-30 426,-30 426,-10 406,-10"/>
<text text-anchor="start" x="429.7258" y="-15.4" font-family="sans-serif" font-size="14.00" fill="#000000"> &#160;Exports</text>
<g id="clust1" class="cluster">
<title>cluster_NgxTwitterTimelineModule</title>
<polygon fill="none" stroke="#000000" stroke-dasharray="1,5" points="30,-70 30,-268 466,-268 466,-70 30,-70"/>
</g>
<g id="clust2" class="cluster">
<title>cluster_NgxTwitterTimelineModule_declarations</title>
<polygon fill="none" stroke="#000000" points="268,-78 268,-130 458,-130 458,-78 268,-78"/>
</g>
<g id="clust5" class="cluster">
<title>cluster_NgxTwitterTimelineModule_exports</title>
<polygon fill="none" stroke="#000000" points="159,-208 159,-260 351,-260 351,-208 159,-208"/>
</g>
<g id="clust7" class="cluster">
<title>cluster_NgxTwitterTimelineModule_providers</title>
<polygon fill="none" stroke="#000000" points="38,-78 38,-130 260,-130 260,-78 38,-78"/>
</g>
<!-- TwitterTimelineComponent -->
<g id="node1" class="node">
<title>TwitterTimelineComponent</title>
<polygon fill="#ffffb3" stroke="#000000" points="449.5828,-122 276.4172,-122 276.4172,-86 449.5828,-86 449.5828,-122"/>
<text text-anchor="middle" x="363" y="-99.8" font-family="Times,serif" font-size="14.00" fill="#000000">TwitterTimelineComponent</text>
</g>
<!-- NgxTwitterTimelineModule -->
<g id="node2" class="node">
<title>NgxTwitterTimelineModule</title>
<polygon fill="#8dd3c7" stroke="#000000" points="342.9073,-187 339.9073,-191 318.9073,-191 315.9073,-187 167.0927,-187 167.0927,-151 342.9073,-151 342.9073,-187"/>
<text text-anchor="middle" x="255" y="-164.8" font-family="Times,serif" font-size="14.00" fill="#000000">NgxTwitterTimelineModule</text>
</g>
<!-- TwitterTimelineComponent&#45;&gt;NgxTwitterTimelineModule -->
<g id="edge1" class="edge">
<title>TwitterTimelineComponent&#45;&gt;NgxTwitterTimelineModule</title>
<path fill="none" stroke="#000000" d="M309.581,-122.1061C309.581,-122.1061 309.581,-140.991 309.581,-140.991"/>
<polygon fill="#000000" stroke="#000000" points="306.0811,-140.9909 309.581,-150.991 313.0811,-140.991 306.0811,-140.9909"/>
</g>
<!-- TwitterTimelineComponent  -->
<g id="node3" class="node">
<title>TwitterTimelineComponent </title>
<polygon fill="#fb8072" stroke="#000000" points="343.0833,-252 166.9167,-252 166.9167,-216 343.0833,-216 343.0833,-252"/>
<text text-anchor="middle" x="255" y="-229.8" font-family="Times,serif" font-size="14.00" fill="#000000">TwitterTimelineComponent </text>
</g>
<!-- NgxTwitterTimelineModule&#45;&gt;TwitterTimelineComponent  -->
<g id="edge2" class="edge">
<title>NgxTwitterTimelineModule&#45;&gt;TwitterTimelineComponent </title>
<path fill="none" stroke="#000000" stroke-dasharray="5,2" d="M255,-187.1061C255,-187.1061 255,-205.991 255,-205.991"/>
<polygon fill="#000000" stroke="#000000" points="251.5001,-205.9909 255,-215.991 258.5001,-205.991 251.5001,-205.9909"/>
</g>
<!-- TwitterTimelineService -->
<g id="node4" class="node">
<title>TwitterTimelineService</title>
<ellipse fill="#fdb462" stroke="#000000" cx="149" cy="-104" rx="103.0598" ry="18"/>
<text text-anchor="middle" x="149" y="-99.8" font-family="Times,serif" font-size="14.00" fill="#000000">TwitterTimelineService</text>
</g>
<!-- TwitterTimelineService&#45;&gt;NgxTwitterTimelineModule -->
<g id="edge3" class="edge">
<title>TwitterTimelineService&#45;&gt;NgxTwitterTimelineModule</title>
<path fill="none" stroke="#000000" d="M209.7881,-118.7495C209.7881,-118.7495 209.7881,-140.5882 209.7881,-140.5882"/>
<polygon fill="#000000" stroke="#000000" points="206.2882,-140.5881 209.7881,-150.5882 213.2882,-140.5882 206.2882,-140.5881"/>
</g>
</g>
</svg>
